<?xml version="1.0" standalone="no"?>
<!DOCTYPE svg PUBLIC "-//W3C//DTD SVG 20010904//EN"
 "http://www.w3.org/TR/2001/REC-SVG-20010904/DTD/svg10.dtd">
<svg version="1.0" xmlns="http://www.w3.org/2000/svg"
 width="1024.000000pt" height="1024.000000pt" viewBox="0 0 1024.000000 1024.000000"
 preserveAspectRatio="xMidYMid meet">
<metadata>
Created by potrace 1.11, written by Peter Selinger 2001-2013
</metadata>
<g transform="translate(0.000000,1024.000000) scale(0.100000,-0.100000)"
fill="#000000" stroke="none">
<path d="M2568 9565 c-2 -2 -32 -6 -68 -9 -346 -35 -689 -135 -979 -287 -108
-57 -312 -186 -356 -226 -11 -10 -43 -36 -70 -58 -88 -70 -284 -271 -335 -345
-14 -19 -28 -37 -31 -40 -38 -33 -183 -268 -258 -418 -91 -181 -198 -476 -236
-652 -2 -8 -11 -49 -20 -90 -22 -99 -21 -98 -30 -150 -4 -25 -9 -52 -10 -60
-31 -174 -39 -301 -40 -565 0 -202 6 -328 20 -415 2 -14 7 -45 10 -70 12 -82
46 -244 70 -335 21 -77 39 -130 108 -320 20 -55 108 -229 155 -305 199 -325
464 -557 769 -675 51 -19 107 -36 124 -38 18 -1 36 -9 40 -17 6 -13 19 -75 45
-225 9 -51 54 -245 80 -345 46 -172 177 -555 229 -666 8 -16 30 -68 50 -115
143 -334 449 -833 679 -1107 157 -187 380 -418 505 -522 29 -25 65 -55 80 -68
64 -57 273 -208 382 -277 272 -173 569 -306 869 -390 101 -28 311 -71 395 -81
33 -3 69 -8 80 -11 37 -9 479 -11 555 -2 137 15 175 20 190 24 8 2 35 7 60 10
25 4 99 20 165 36 508 126 930 344 1370 708 134 111 353 325 446 436 19 22 39
45 45 50 17 16 165 202 226 285 372 509 660 1126 825 1770 26 104 87 397 98
472 6 45 8 48 43 53 115 19 314 112 454 212 82 58 233 200 302 283 63 75 182
260 229 355 134 269 221 559 263 885 25 191 24 737 -1 813 -2 7 -6 35 -9 62
-6 54 -36 217 -60 329 -35 156 -107 373 -188 566 -72 169 -222 418 -349 575
-61 76 -240 262 -304 315 -355 295 -757 478 -1235 559 -166 29 -270 36 -495
36 -255 0 -358 -10 -545 -51 -14 -3 -38 -8 -55 -10 -59 -11 -271 -87 -352
-127 l-83 -41 -97 38 c-229 89 -437 149 -663 191 -14 3 -36 7 -50 9 -14 3 -49
8 -79 11 -30 4 -61 8 -70 10 -40 8 -247 18 -351 18 -193 0 -394 -22 -618 -67
-128 -26 -355 -95 -549 -167 l-63 -23 -37 21 c-21 12 -54 30 -73 40 -91 50
-325 132 -425 149 -16 2 -37 7 -45 9 -24 7 -71 14 -128 21 -29 3 -63 8 -75 11
-23 6 -523 14 -529 8z m667 -619 c218 -40 367 -109 485 -225 161 -159 223
-341 215 -636 -2 -82 -6 -161 -9 -175 -3 -13 -8 -42 -12 -65 -40 -272 -170
-609 -369 -955 -43 -74 -86 -146 -96 -160 -9 -14 -53 -79 -96 -145 -370 -558
-881 -1082 -1284 -1314 -224 -129 -408 -169 -563 -121 -253 79 -487 323 -616
645 -34 84 -85 249 -100 325 -5 25 -12 56 -15 70 -2 14 -8 50 -11 80 -3 30 -7
57 -9 60 -6 9 -18 238 -18 330 0 81 10 252 18 315 39 294 94 513 166 673 16
34 29 64 29 67 0 10 116 205 158 265 85 122 259 308 373 401 23 19 46 39 53
44 6 6 27 22 46 35 19 13 37 27 40 30 10 12 176 118 258 165 197 113 524 239
702 272 14 2 43 8 65 13 22 5 67 12 100 15 33 4 62 8 63 10 11 11 349 -5 427
-19z m2125 -30 c169 -22 343 -59 500 -106 l69 -20 -36 -78 c-35 -76 -88 -237
-99 -296 -3 -17 -9 -49 -14 -71 -24 -109 -35 -465 -17 -585 13 -88 57 -278 84
-365 68 -219 247 -610 353 -775 5 -8 17 -28 26 -45 48 -86 319 -485 344 -505
3 -3 17 -21 30 -40 14 -19 32 -44 41 -55 10 -11 53 -64 97 -118 273 -332 625
-672 927 -894 55 -40 105 -77 110 -81 17 -14 136 -92 140 -92 1 0 32 -17 67
-39 35 -21 96 -55 136 -75 78 -40 80 -43 62 -122 -5 -22 -12 -60 -15 -83 -3
-24 -12 -72 -20 -106 -8 -35 -16 -74 -19 -87 -23 -132 -155 -558 -216 -703 -5
-11 -28 -65 -51 -120 -58 -136 -201 -417 -278 -545 -55 -90 -213 -325 -255
-378 -417 -521 -813 -838 -1301 -1042 -178 -74 -448 -147 -610 -165 -33 -3
-78 -8 -100 -11 -60 -8 -321 -7 -395 0 -533 57 -1008 266 -1455 641 -164 138
-334 314 -504 520 -177 216 -401 586 -538 890 -132 292 -259 667 -307 911 -31
155 -55 276 -60 305 l-6 36 82 42 c488 249 1069 777 1528 1386 95 126 260 362
260 371 0 3 17 31 38 62 103 151 285 507 365 712 79 202 142 436 165 610 9 71
9 400 -1 465 -4 28 -9 69 -13 92 -5 35 -17 96 -39 191 -7 31 -71 207 -84 231
-13 23 -7 26 174 70 143 35 273 58 375 66 41 4 76 8 78 10 4 4 342 -4 382 -9z
m2150 -1 c340 -47 733 -201 1045 -410 414 -277 696 -626 830 -1029 38 -112 91
-348 100 -446 3 -30 8 -66 10 -80 22 -119 22 -462 0 -620 -5 -34 -16 -109 -21
-145 -10 -65 -54 -225 -87 -315 -91 -253 -242 -468 -411 -590 -63 -45 -196
-111 -260 -129 -35 -9 -190 -8 -226 2 -8 2 -35 9 -60 16 -71 20 -257 114 -350
176 -77 53 -198 141 -210 155 -3 3 -34 30 -70 60 -357 299 -767 794 -1056
1273 -286 474 -432 908 -432 1283 1 185 35 327 109 449 121 200 361 323 684
351 39 4 72 8 73 9 6 6 284 -3 332 -10z"/>
<path d="M5107 4164 c-1 -1 -38 -5 -82 -9 -44 -4 -118 -13 -165 -20 -152 -24
-205 -37 -384 -91 -213 -64 -506 -182 -506 -204 0 -13 50 -138 94 -233 19 -42
34 -79 33 -81 -1 -1 3 -9 9 -17 7 -8 31 -50 55 -94 77 -144 199 -329 274 -414
192 -218 340 -326 538 -391 160 -53 365 -40 532 33 142 62 289 175 415 319
176 201 356 507 471 797 39 100 49 88 -129 162 -387 160 -725 237 -1065 243
-48 1 -89 1 -90 0z"/>
</g>
</svg>
