<svg xmlns="http://www.w3.org/2000/svg" style="width:0; height:0; visibility:hidden;">
    <symbol id="eq" viewBox="0 0 37.4 12">
       <path fill="#000" d="M34.5.2V1c-.5-.6-1.2-1-2.3-1-2.3 0-3.8 2-3.8 4.4 0 2.4 1.6 4.4 3.8 4.4 1 0 1.7-.3 2.2-.8v4h3V.2h-2.9zM33 6c-.9 0-1.5-.7-1.5-1.6s.6-1.6 1.5-1.6 1.5.7 1.5 1.6S33.8 6 33 6zm-9.5-6c-2.6 0-4.4 1.8-4.4 4.5 0 2.6 1.8 4.3 4.5 4.3 1.7 0 3-.6 3.8-1.5l-2.1-1.7c-.5.4-1 .7-1.6.7-.8 0-1.3-.3-1.5-1h5.5c0-.2.1-.6.1-.9 0-2.6-1.7-4.4-4.3-4.4zm-1.2 3.5c.2-.7.6-1 1.3-1 .6 0 1 .3 1.3 1h-2.6zM0 2.8h18.4v2.4H0z"/> 
    </symbol>
    <symbol id="facebook" viewBox="0 0 12 28">
       <path class="path1" d="M7.984 8.687h4.016l-0.469 4.438h-3.547v12.875h-5.328v-12.875h-2.656v-4.438h2.656v-2.672q0-2.844 1.344-4.305t4.422-1.461h3.547v4.438h-2.219q-0.609 0-0.977 0.102t-0.531 0.367-0.211 0.539-0.047 0.773v2.219z"/> 
    </symbol>
    <symbol id="googleplus" viewBox="0 0 28 28">
       <path class="path1" d="M10.594 24.891q0 0.594-0.156 1.109h-5.938q-1.484 0-2.68-0.883t-1.617-2.305q0.375-0.703 1.078-1.211t1.563-0.773 1.672-0.375 1.672-0.109q0.5 0 0.766 0.031 0.094 0.063 0.477 0.328t0.516 0.359 0.484 0.359 0.5 0.398 0.43 0.398 0.414 0.461 0.328 0.477 0.273 0.539 0.148 0.562 0.070 0.633zM6.016 19.406q-3.656 0.109-6.016 1.328v-6.766q1.609 1.844 4.266 1.844 0.5 0 1.094-0.078-0.328 0.953-0.328 1.344 0 1.047 0.984 2.328zM8.719 11.422q0 1.563-0.68 2.508t-2.195 0.945q-0.797 0-1.516-0.406t-1.219-1.055-0.875-1.461-0.555-1.625-0.18-1.547q0-1.5 0.805-2.578t2.258-1.078q1.031 0 1.859 0.641t1.312 1.625 0.734 2.031 0.25 2zM24 10v11.5q0 1.859-1.32 3.18t-3.18 1.32h-7.313q0.609-1.141 0.609-2.453 0-1.031-0.344-1.914t-0.867-1.453-1.125-1.109-1.125-0.93-0.867-0.852-0.344-0.93q0-0.562 0.359-1.062t0.875-0.961 1.023-1.008 0.867-1.453 0.359-2.047-0.414-2.273-1.18-1.852q-0.094-0.094-0.219-0.172t-0.195-0.117-0.156-0.148-0.164-0.266h2.109l2.109-1h-6.828q-2.156 0-3.82 0.602t-2.852 2.086q0-1.969 1.266-3.328t3.234-1.359h15q1.859 0 3.18 1.32t1.32 3.18v1.5h-4v-4h-2v4h-4v2h4v4h2v-4h4z"/> 
    </symbol>
    <symbol id="linkedin" viewBox="0 0 28 28">
       <path class="path1" d="M3.703 22.094h3.609v-10.844h-3.609v10.844zM7.547 7.906q-0.016-0.812-0.562-1.344t-1.453-0.531-1.477 0.531-0.57 1.344q0 0.797 0.555 1.336t1.445 0.539h0.016q0.922 0 1.484-0.539t0.562-1.336zM16.688 22.094h3.609v-6.219q0-2.406-1.141-3.641t-3.016-1.234q-2.125 0-3.266 1.828h0.031v-1.578h-3.609q0.047 1.031 0 10.844h3.609v-6.062q0-0.594 0.109-0.875 0.234-0.547 0.703-0.93t1.156-0.383q1.813 0 1.813 2.453v5.797zM24 6.5v15q0 1.859-1.32 3.18t-3.18 1.32h-15q-1.859 0-3.18-1.32t-1.32-3.18v-15q0-1.859 1.32-3.18t3.18-1.32h15q1.859 0 3.18 1.32t1.32 3.18z"/> 
    </symbol>
    <symbol id="twitter" viewBox="0 0 26 28">
       <path class="path1" d="M25.312 6.375q-1.047 1.531-2.531 2.609 0.016 0.219 0.016 0.656 0 2.031-0.594 4.055t-1.805 3.883-2.883 3.289-4.031 2.281-5.047 0.852q-4.234 0-7.75-2.266 0.547 0.063 1.219 0.063 3.516 0 6.266-2.156-1.641-0.031-2.938-1.008t-1.781-2.492q0.516 0.078 0.953 0.078 0.672 0 1.328-0.172-1.75-0.359-2.898-1.742t-1.148-3.211v-0.063q1.062 0.594 2.281 0.641-1.031-0.688-1.641-1.797t-0.609-2.406q0-1.375 0.688-2.547 1.891 2.328 4.602 3.727t5.805 1.555q-0.125-0.594-0.125-1.156 0-2.094 1.477-3.57t3.57-1.477q2.188 0 3.687 1.594 1.703-0.328 3.203-1.219-0.578 1.797-2.219 2.781 1.453-0.156 2.906-0.781z"/> 
    </symbol></svg>