<svg viewBox="0 0 400 100" xmlns="http://www.w3.org/2000/svg"><path d="M32.8 24.3H19.3v-2.8c0-7.5 2.6-9.7 8-9.7 2.7 0 5.5.3 8.7.8V1c-3.7-.7-7.3-1-10-1C14.2 0 7 6 7 21.5v2.8H0v11.5h7v46.7H19V35.8h13.5V24.3zM62.2 23c-17 0-30.4 13.6-30.4 30.4 0 17 13.6 30.4 30.4 30.4 17 0 30.4-13.6 30.4-30.5C92.6 36.5 79 23 62.2 23zm0 48.7c-10 0-17.3-8.3-17.3-18.4C45 43.3 52 35 62 35c10 0 17.3 8.2 17.3 18.3 0 10-7 18.4-17.3 18.4zm131.6-13l-16.6-34.5h-26.4V8.7h-12.3v15.5h-12.3c-6 0-11.2 1.8-14.5 6.5v-6.5H99.4v58.2H112V55.6c0-5.7.6-10.7 3-14.2 2.4-3.3 6.4-5.5 11-5.6h12.4v29.8C138.4 78.4 144 83 155 83c3.7 0 7.6-.4 11.4-1.2V70.5c-4.4.6-8.4.8-11.5.7-3 0-4.3-1.8-4.3-5V35.7h18l18 37.6-12 26.6h13.6l35-75.7H210l-16.2 34.4zm134.8-34L315 62 300 24.7h-8.6L277 62l-13.6-37.4h-27.7V9h-12.3v56.8c0 12.8 5.6 17.5 16.5 17.5 3.7 0 7.6-.5 11.4-1.3V70.8c-4.4.6-8.4.8-11.5.7-3 0-4.3-1.8-4.3-5V36h18.5l18.2 46.7h9.2c5-11.8 9.3-24 14.5-36.2l14.3 36.2h9.3l22.6-58.2h-13.6zm41-1.5c-17 0-30.4 13.7-30.4 30.5 0 17 13.5 30.5 30.4 30.5 17 0 30.4-13.6 30.4-30.5 0-16.8-13.5-30.5-30.4-30.5zm0 48.8c-10 0-17.3-8.3-17.3-18.4 0-10 7.2-18.2 17.3-18.2 10 0 17.3 8.2 17.3 18.3 0 10-7.2 18.3-17.4 18.3z"/></svg>