<svg xmlns="http://www.w3.org/2000/svg" id="basekit" viewBox="-174.9 376 204.4 44.4"><path d="M-144.5 405c0 8.7-6.1 15.3-14.1 15.3-4 0-6.8-1.6-8.7-4v3.2h-7.6v-43.2h7.8v17.2c1.9-2.3 4.6-3.8 8.5-3.8 8.1 0 14.1 6.6 14.1 15.3zm-23 0c0 4.6 3 8 7.5 8 4.6 0 7.5-3.6 7.5-8s-2.9-8-7.5-8c-4.5 0-7.5 3.4-7.5 8zm57.3 14.6h-7.6v-3.2c-1.9 2.3-4.7 4-8.7 4-8 0-14.1-6.6-14.1-15.3s6.1-15.3 14.1-15.3c4 0 6.8 1.6 8.7 4v-3.2h7.6v29zm-22.4-14.6c0 4.4 2.9 8 7.5 8 4.5 0 7.5-3.4 7.5-8s-3-8-7.5-8c-4.6 0-7.5 3.6-7.5 8zm50.6-6.4c-2.3-1.1-6-2.3-9.3-2.4-3 0-4.5 1-4.5 2.6 0 1.7 2.1 2.1 4.7 2.5l2.6.4c6.3 1 9.8 3.8 9.8 8.7 0 6-4.9 9.9-13.3 9.9-4 0-9.1-.8-12.9-3.4l3.1-5.9c2.5 1.7 5.5 2.9 9.9 2.9 3.6 0 5.4-1 5.4-2.7 0-1.4-1.5-2.2-4.8-2.7l-2.4-.3c-6.7-.9-10-3.9-10-8.8 0-6 4.6-9.5 12.3-9.5 4.6 0 8.3.9 12.1 2.8l-2.7 5.9zm35.9 6.4c0 .9-.1 2-.2 2.6h-20.6c.8 4.2 3.8 6 7.5 6 2.5 0 5.2-1 7.3-2.8l4.6 5c-3.3 3-7.5 4.4-12.4 4.4-8.9 0-15.1-6.1-15.1-15.2s6-15.4 14.7-15.4c8.4.1 14.1 6.3 14.2 15.4zm-20.8-2.7H-54c-.7-3.7-3-5.8-6.3-5.8-3.7 0-5.9 2.2-6.6 5.8zm34.2-1.4h2.8l8.2-10.3h9.6l-11.5 13.7 11.5 15.4h-9.6l-8.4-11.8h-2.6v11.8h-7.8v-43.2h7.8v24.4zM.5 381c0 2.8-2.2 5-5 5s-5-2.2-5-5 2.2-5 5-5 5 2.2 5 5zm-1.1 38.6h-7.8v-29.1h7.8v29.1zm28-22.1H16.9v10.6c0 3.6 1.9 5 4.4 5 1.9 0 3.9-.9 5.5-1.9l2.9 6.1c-2.6 1.7-5.5 3.1-9.6 3.1-7.2 0-10.9-4.1-10.9-11.6v-11.2H3.4v-7H9V382h7.8v8.6h10.5v6.9z"/></svg>