<svg xmlns="http://www.w3.org/2000/svg" id="googleplus" viewBox="0 0 28 28">
  <path class="path1" d="M10.594 24.891q0 0.594-0.156 1.109h-5.938q-1.484 0-2.68-0.883t-1.617-2.305q0.375-0.703 1.078-1.211t1.563-0.773 1.672-0.375 1.672-0.109q0.5 0 0.766 0.031 0.094 0.063 0.477 0.328t0.516 0.359 0.484 0.359 0.5 0.398 0.43 0.398 0.414 0.461 0.328 0.477 0.273 0.539 0.148 0.562 0.070 0.633zM6.016 19.406q-3.656 0.109-6.016 1.328v-6.766q1.609 1.844 4.266 1.844 0.5 0 1.094-0.078-0.328 0.953-0.328 1.344 0 1.047 0.984 2.328zM8.719 11.422q0 1.563-0.68 2.508t-2.195 0.945q-0.797 0-1.516-0.406t-1.219-1.055-0.875-1.461-0.555-1.625-0.18-1.547q0-1.5 0.805-2.578t2.258-1.078q1.031 0 1.859 0.641t1.312 1.625 0.734 2.031 0.25 2zM24 10v11.5q0 1.859-1.32 3.18t-3.18 1.32h-7.313q0.609-1.141 0.609-2.453 0-1.031-0.344-1.914t-0.867-1.453-1.125-1.109-1.125-0.93-0.867-0.852-0.344-0.93q0-0.562 0.359-1.062t0.875-0.961 1.023-1.008 0.867-1.453 0.359-2.047-0.414-2.273-1.18-1.852q-0.094-0.094-0.219-0.172t-0.195-0.117-0.156-0.148-0.164-0.266h2.109l2.109-1h-6.828q-2.156 0-3.82 0.602t-2.852 2.086q0-1.969 1.266-3.328t3.234-1.359h15q1.859 0 3.18 1.32t1.32 3.18v1.5h-4v-4h-2v4h-4v2h4v4h2v-4h4z"></path>
</svg>