<svg xmlns="http://www.w3.org/2000/svg" viewBox="0 0 64 52"><path fill="#FFFFFF" d="M2.124,52.0002758 C2.144,52.0002758 2.169,52.0002758 2.192,51.9982758 C3.202,51.9652758 3.842,51.2062758 3.927,50.2312758 C3.995,49.5162758 5.987,32.1642758 34.007,32.1812758 L34.069,43.2782758 C34.069,44.0262758 34.511,44.7082758 35.213,45.0282758 C35.906,45.3482758 36.74,45.2502758 37.337,44.7732758 L63.271,24.0052758 C63.736,23.6352758 64.003,23.0872758 64.001,22.5072758 C64.001,21.9272758 63.731,21.3772758 63.266,21.0112758 L37.33,0.433275786 C36.733,-0.0397242137 35.906,-0.130724214 35.21,0.186275786 C34.512,0.506275786 34.067,1.18627579 34.067,1.93227579 L34.003,12.7842758 C22.379,13.1402758 13.378,16.7542758 7.543,23.3542758 C-1.95,34.0942758 0.17,49.7042758 0.27,50.3542758 C0.418,51.3042758 1.136,51.9992758 2.124,51.9992758 L2.124,52.0002758 Z"/></svg>