<svg xmlns="http://www.w3.org/2000/svg" style="width:0; height:0; visibility:hidden;">
    <symbol id="Facebook" viewBox="0 0 12 28">
      <title>Facebook</title>
       <path fill="#000" class="path1" d="M7.984 8.687h4.016l-0.469 4.438h-3.547v12.875h-5.328v-12.875h-2.656v-4.438h2.656v-2.672q0-2.844 1.344-4.305t4.422-1.461h3.547v4.438h-2.219q-0.609 0-0.977 0.102t-0.531 0.367-0.211 0.539-0.047 0.773v2.219z"/> 
    </symbol>
    <symbol id="Google-Plus" viewBox="0 0 28 28">
      <title>Google Plus</title>
       <path fill="#000" class="path1" d="M10.594 24.891q0 0.594-0.156 1.109h-5.938q-1.484 0-2.68-0.883t-1.617-2.305q0.375-0.703 1.078-1.211t1.563-0.773 1.672-0.375 1.672-0.109q0.5 0 0.766 0.031 0.094 0.063 0.477 0.328t0.516 0.359 0.484 0.359 0.5 0.398 0.43 0.398 0.414 0.461 0.328 0.477 0.273 0.539 0.148 0.562 0.070 0.633zM6.016 19.406q-3.656 0.109-6.016 1.328v-6.766q1.609 1.844 4.266 1.844 0.5 0 1.094-0.078-0.328 0.953-0.328 1.344 0 1.047 0.984 2.328zM8.719 11.422q0 1.563-0.68 2.508t-2.195 0.945q-0.797 0-1.516-0.406t-1.219-1.055-0.875-1.461-0.555-1.625-0.18-1.547q0-1.5 0.805-2.578t2.258-1.078q1.031 0 1.859 0.641t1.312 1.625 0.734 2.031 0.25 2zM24 10v11.5q0 1.859-1.32 3.18t-3.18 1.32h-7.313q0.609-1.141 0.609-2.453 0-1.031-0.344-1.914t-0.867-1.453-1.125-1.109-1.125-0.93-0.867-0.852-0.344-0.93q0-0.562 0.359-1.062t0.875-0.961 1.023-1.008 0.867-1.453 0.359-2.047-0.414-2.273-1.18-1.852q-0.094-0.094-0.219-0.172t-0.195-0.117-0.156-0.148-0.164-0.266h2.109l2.109-1h-6.828q-2.156 0-3.82 0.602t-2.852 2.086q0-1.969 1.266-3.328t3.234-1.359h15q1.859 0 3.18 1.32t1.32 3.18v1.5h-4v-4h-2v4h-4v2h4v4h2v-4h4z"/> 
    </symbol>
    <symbol id="Linkedin" viewBox="0 0 28 28">
      <title>Linkedin</title>
       <path fill="#000" class="path1" d="M3.703 22.094h3.609v-10.844h-3.609v10.844zM7.547 7.906q-0.016-0.812-0.562-1.344t-1.453-0.531-1.477 0.531-0.57 1.344q0 0.797 0.555 1.336t1.445 0.539h0.016q0.922 0 1.484-0.539t0.562-1.336zM16.688 22.094h3.609v-6.219q0-2.406-1.141-3.641t-3.016-1.234q-2.125 0-3.266 1.828h0.031v-1.578h-3.609q0.047 1.031 0 10.844h3.609v-6.062q0-0.594 0.109-0.875 0.234-0.547 0.703-0.93t1.156-0.383q1.813 0 1.813 2.453v5.797zM24 6.5v15q0 1.859-1.32 3.18t-3.18 1.32h-15q-1.859 0-3.18-1.32t-1.32-3.18v-15q0-1.859 1.32-3.18t3.18-1.32h15q1.859 0 3.18 1.32t1.32 3.18z"/> 
    </symbol>
    <symbol id="Twitter" viewBox="0 0 26 28">
      <title>Twitter</title>
       <path fill="#000" class="path1" d="M25.312 6.375q-1.047 1.531-2.531 2.609 0.016 0.219 0.016 0.656 0 2.031-0.594 4.055t-1.805 3.883-2.883 3.289-4.031 2.281-5.047 0.852q-4.234 0-7.75-2.266 0.547 0.063 1.219 0.063 3.516 0 6.266-2.156-1.641-0.031-2.938-1.008t-1.781-2.492q0.516 0.078 0.953 0.078 0.672 0 1.328-0.172-1.75-0.359-2.898-1.742t-1.148-3.211v-0.063q1.062 0.594 2.281 0.641-1.031-0.688-1.641-1.797t-0.609-2.406q0-1.375 0.688-2.547 1.891 2.328 4.602 3.727t5.805 1.555q-0.125-0.594-0.125-1.156 0-2.094 1.477-3.57t3.57-1.477q2.188 0 3.687 1.594 1.703-0.328 3.203-1.219-0.578 1.797-2.219 2.781 1.453-0.156 2.906-0.781z"/> 
    </symbol>
    <symbol id="basekit" viewBox="-174.9 376 204.4 44.4">
      <title>basekit</title>
      <path d="M-144.5 405c0 8.7-6.1 15.3-14.1 15.3-4 0-6.8-1.6-8.7-4v3.2h-7.6v-43.2h7.8v17.2c1.9-2.3 4.6-3.8 8.5-3.8 8.1 0 14.1 6.6 14.1 15.3zm-23 0c0 4.6 3 8 7.5 8 4.6 0 7.5-3.6 7.5-8s-2.9-8-7.5-8c-4.5 0-7.5 3.4-7.5 8zm57.3 14.6h-7.6v-3.2c-1.9 2.3-4.7 4-8.7 4-8 0-14.1-6.6-14.1-15.3s6.1-15.3 14.1-15.3c4 0 6.8 1.6 8.7 4v-3.2h7.6v29zm-22.4-14.6c0 4.4 2.9 8 7.5 8 4.5 0 7.5-3.4 7.5-8s-3-8-7.5-8c-4.6 0-7.5 3.6-7.5 8zm50.6-6.4c-2.3-1.1-6-2.3-9.3-2.4-3 0-4.5 1-4.5 2.6 0 1.7 2.1 2.1 4.7 2.5l2.6.4c6.3 1 9.8 3.8 9.8 8.7 0 6-4.9 9.9-13.3 9.9-4 0-9.1-.8-12.9-3.4l3.1-5.9c2.5 1.7 5.5 2.9 9.9 2.9 3.6 0 5.4-1 5.4-2.7 0-1.4-1.5-2.2-4.8-2.7l-2.4-.3c-6.7-.9-10-3.9-10-8.8 0-6 4.6-9.5 12.3-9.5 4.6 0 8.3.9 12.1 2.8l-2.7 5.9zm35.9 6.4c0 .9-.1 2-.2 2.6h-20.6c.8 4.2 3.8 6 7.5 6 2.5 0 5.2-1 7.3-2.8l4.6 5c-3.3 3-7.5 4.4-12.4 4.4-8.9 0-15.1-6.1-15.1-15.2s6-15.4 14.7-15.4c8.4.1 14.1 6.3 14.2 15.4zm-20.8-2.7H-54c-.7-3.7-3-5.8-6.3-5.8-3.7 0-5.9 2.2-6.6 5.8zm34.2-1.4h2.8l8.2-10.3h9.6l-11.5 13.7 11.5 15.4h-9.6l-8.4-11.8h-2.6v11.8h-7.8v-43.2h7.8v24.4zM.5 381c0 2.8-2.2 5-5 5s-5-2.2-5-5 2.2-5 5-5 5 2.2 5 5zm-1.1 38.6h-7.8v-29.1h7.8v29.1zm28-22.1H16.9v10.6c0 3.6 1.9 5 4.4 5 1.9 0 3.9-.9 5.5-1.9l2.9 6.1c-2.6 1.7-5.5 3.1-9.6 3.1-7.2 0-10.9-4.1-10.9-11.6v-11.2H3.4v-7H9V382h7.8v8.6h10.5v6.9z"/>
    </symbol>
    <symbol id="eq-design" viewBox="0 0 37.4 12">
      <title>eq design</title>
       <path fill="#000" d="M34.5.2V1c-.5-.6-1.2-1-2.3-1-2.3 0-3.8 2-3.8 4.4 0 2.4 1.6 4.4 3.8 4.4 1 0 1.7-.3 2.2-.8v4h3V.2h-2.9zM33 6c-.9 0-1.5-.7-1.5-1.6s.6-1.6 1.5-1.6 1.5.7 1.5 1.6S33.8 6 33 6zm-9.5-6c-2.6 0-4.4 1.8-4.4 4.5 0 2.6 1.8 4.3 4.5 4.3 1.7 0 3-.6 3.8-1.5l-2.1-1.7c-.5.4-1 .7-1.6.7-.8 0-1.3-.3-1.5-1h5.5c0-.2.1-.6.1-.9 0-2.6-1.7-4.4-4.3-4.4zm-1.2 3.5c.2-.7.6-1 1.3-1 .6 0 1 .3 1.3 1h-2.6zM0 2.8h18.4v2.4H0z"/> 
    </symbol></svg>