<svg xmlns="http://www.w3.org/2000/svg" viewBox="0 0 136 102"><path fill="#000000" fill-rule="evenodd" d="M17.4534236,45.6899736 L0,45.6899736 L0,0.953166227 L17.5154251,0.953166227 C25.172611,0.953166227 30.3497366,5.41754617 30.3497366,12.1141161 C30.3497366,16.7645119 26.9396539,21.1048813 22.6305493,21.8799472 L22.6305493,22.1279683 C28.7066968,22.9030343 32.6127916,27.1813984 32.6127916,33.133905 C32.6127916,41.0085752 26.9706546,45.6899736 17.4534236,45.6899736 Z M5.58013544,5.88258575 L5.58013544,20.2368074 L14.5083521,20.2368074 C21.1115124,20.2368074 24.7075997,17.6015831 24.7075997,12.7651715 C24.7075997,8.3317942 21.669526,5.88258575 16.2443943,5.88258575 L5.58013544,5.88258575 Z M5.58013544,40.7605541 L16.6164033,40.7605541 C23.3435666,40.7605541 26.8776524,38.0323219 26.8776524,32.8548813 C26.8776524,27.6774406 23.2195636,25.0422164 16.0893905,25.0422164 L5.58013544,25.0422164 L5.58013544,40.7605541 Z M51.1512415,41.3186016 C56.607374,41.3186016 60.606471,37.7843008 60.606471,32.9788918 L60.606471,30.2816623 L51.8642588,30.8397098 C46.8421369,31.1497361 44.2380737,32.9788918 44.2380737,36.2031662 C44.2380737,39.3034301 46.9351392,41.3186016 51.1512415,41.3186016 Z M50.0042137,46 C43.2150489,46 38.7199398,42.0936675 38.7199398,36.1721636 C38.7199398,30.4366755 43.1220467,27.0573879 51.2442438,26.5613456 L60.606471,26.0032982 L60.606471,23.2130607 C60.606471,19.0587071 57.8784048,16.7645119 52.9492852,16.7645119 C49.0741911,16.7645119 46.1911211,18.7486807 45.5401053,21.9109499 L40.3629797,21.9109499 C40.5179834,16.2684697 46.0051166,11.9591029 53.0112867,11.9591029 C60.9164786,11.9591029 66.000602,16.1754617 66.000602,22.7480211 L66.000602,45.6899736 L60.8854778,45.6899736 L60.8854778,39.8924802 L60.7614748,39.8924802 C58.8704289,43.6127968 54.6853273,46 50.0042137,46 Z M74.5878104,21.6009235 C74.5878104,26.0653034 77.4398796,29.0105541 83.2990218,30.5296834 L89.158164,32.0488127 C92.9712566,33.0408971 94.3662904,34.2810026 94.3662904,36.6372032 C94.3662904,39.6444591 91.5142212,41.5356201 86.9571106,41.5356201 C82.4,41.5356201 79.640933,39.7064644 79.0829195,36.2961741 L73.6577878,36.2961741 C74.1848006,42.0936675 79.392927,46 86.5851016,46 C94.3042889,46 99.7914221,41.969657 99.7914221,36.2651715 C99.7914221,31.3977573 97.3733634,29.0415567 90.6151994,27.3364116 L85.531076,26.0653034 C81.6869827,25.1042216 79.8889391,23.5850923 79.8889391,21.3218997 C79.8889391,18.4076517 82.648006,16.4544855 86.7711061,16.4544855 C90.8632054,16.4544855 93.5912716,18.4076517 93.9322799,21.5389182 L99.1094056,21.5389182 C98.8924003,16.0514512 93.7462754,11.9901055 86.9571106,11.9901055 C79.7029345,11.9901055 74.5878104,15.9584433 74.5878104,21.6009235 Z M120.964936,16.7025066 C115.725809,16.7025066 111.943717,20.5158311 111.571708,26.1583113 L129.955154,26.1583113 C129.831151,20.4848285 126.235064,16.7025066 120.964936,16.7025066 Z M129.831151,36.1411609 L135.163281,36.1411609 C134.233258,41.8766491 128.436117,46 121.305944,46 C111.912716,46 105.991573,39.4584433 105.991573,29.103562 C105.991573,18.7486807 111.943717,11.9591029 121.057938,11.9591029 C129.986155,11.9591029 135.56629,18.2526385 135.56629,28.3594987 L135.56629,30.4676781 L111.571708,30.4676781 L111.571708,30.7777045 C111.571708,37.1332454 115.477803,41.2565963 121.429947,41.2565963 C125.615049,41.2565963 128.870128,39.2724274 129.831151,36.1411609 Z M5.92761475,83.2124011 L5.92761475,55 L0.533483822,55 L0.533483822,101.689974 L5.92761475,101.689974 L5.92761475,89.0098945 L9.0896915,86.0336412 L21.6449962,101.689974 L27.9071482,101.689974 L12.8717833,82.7163588 L27.4731377,68.2691293 L20.9009782,68.2691293 L5.92761475,83.2124011 Z M34.324304,101.689974 L39.7184349,101.689974 L39.7184349,68.2691293 L34.324304,68.2691293 L34.324304,101.689974 Z M37.0213695,62.8746702 C38.9124153,62.8746702 40.4314522,61.3245383 40.4314522,59.4643799 C40.4314522,57.573219 38.9124153,56.0540897 37.0213695,56.0540897 C35.1613243,56.0540897 33.6112867,57.573219 33.6112867,59.4643799 C33.6112867,61.3245383 35.1613243,62.8746702 37.0213695,62.8746702 Z M51.0957111,60.7354881 L51.0957111,68.2691293 L46.4455982,68.2691293 L46.4455982,72.7335092 L51.0957111,72.7335092 L51.0957111,93.0092348 C51.0957111,99.426781 53.4517682,101.937995 59.496915,101.937995 C60.7679458,101.937995 62.3179834,101.813984 62.9689992,101.658971 L62.9689992,97.1015831 C62.5969902,97.1635884 61.2949586,97.2565963 60.6439428,97.2565963 C57.7918736,97.2565963 56.489842,95.8614776 56.489842,92.7922164 L56.489842,72.7335092 L63,72.7335092 L63,68.2691293 L56.489842,68.2691293 L56.489842,60.7354881 L51.0957111,60.7354881 Z"/></svg>