<svg xmlns="http://www.w3.org/2000/svg" viewBox="0 0 205 47"><path fill="#222222" fill-rule="evenodd" d="M17.4534236,46.6899736 L0,46.6899736 L0,1.95316623 L17.5154251,1.95316623 C25.172611,1.95316623 30.3497366,6.41754617 30.3497366,13.1141161 C30.3497366,17.7645119 26.9396539,22.1048813 22.6305493,22.8799472 L22.6305493,23.1279683 C28.7066968,23.9030343 32.6127916,28.1813984 32.6127916,34.133905 C32.6127916,42.0085752 26.9706546,46.6899736 17.4534236,46.6899736 Z M5.58013544,6.88258575 L5.58013544,21.2368074 L14.5083521,21.2368074 C21.1115124,21.2368074 24.7075997,18.6015831 24.7075997,13.7651715 C24.7075997,9.3317942 21.669526,6.88258575 16.2443943,6.88258575 L5.58013544,6.88258575 Z M5.58013544,41.7605541 L16.6164033,41.7605541 C23.3435666,41.7605541 26.8776524,39.0323219 26.8776524,33.8548813 C26.8776524,28.6774406 23.2195636,26.0422164 16.0893905,26.0422164 L5.58013544,26.0422164 L5.58013544,41.7605541 Z M51.1512415,42.3186016 C56.607374,42.3186016 60.606471,38.7843008 60.606471,33.9788918 L60.606471,31.2816623 L51.8642588,31.8397098 C46.8421369,32.1497361 44.2380737,33.9788918 44.2380737,37.2031662 C44.2380737,40.3034301 46.9351392,42.3186016 51.1512415,42.3186016 Z M50.0042137,47 C43.2150489,47 38.7199398,43.0936675 38.7199398,37.1721636 C38.7199398,31.4366755 43.1220467,28.0573879 51.2442438,27.5613456 L60.606471,27.0032982 L60.606471,24.2130607 C60.606471,20.0587071 57.8784048,17.7645119 52.9492852,17.7645119 C49.0741911,17.7645119 46.1911211,19.7486807 45.5401053,22.9109499 L40.3629797,22.9109499 C40.5179834,17.2684697 46.0051166,12.9591029 53.0112867,12.9591029 C60.9164786,12.9591029 66.000602,17.1754617 66.000602,23.7480211 L66.000602,46.6899736 L60.8854778,46.6899736 L60.8854778,40.8924802 L60.7614748,40.8924802 C58.8704289,44.6127968 54.6853273,47 50.0042137,47 Z M74.5878104,22.6009235 C74.5878104,27.0653034 77.4398796,30.0105541 83.2990218,31.5296834 L89.158164,33.0488127 C92.9712566,34.0408971 94.3662904,35.2810026 94.3662904,37.6372032 C94.3662904,40.6444591 91.5142212,42.5356201 86.9571106,42.5356201 C82.4,42.5356201 79.640933,40.7064644 79.0829195,37.2961741 L73.6577878,37.2961741 C74.1848006,43.0936675 79.392927,47 86.5851016,47 C94.3042889,47 99.7914221,42.969657 99.7914221,37.2651715 C99.7914221,32.3977573 97.3733634,30.0415567 90.6151994,28.3364116 L85.531076,27.0653034 C81.6869827,26.1042216 79.8889391,24.5850923 79.8889391,22.3218997 C79.8889391,19.4076517 82.648006,17.4544855 86.7711061,17.4544855 C90.8632054,17.4544855 93.5912716,19.4076517 93.9322799,22.5389182 L99.1094056,22.5389182 C98.8924003,17.0514512 93.7462754,12.9901055 86.9571106,12.9901055 C79.7029345,12.9901055 74.5878104,16.9584433 74.5878104,22.6009235 Z M120.964936,17.7025066 C115.725809,17.7025066 111.943717,21.5158311 111.571708,27.1583113 L129.955154,27.1583113 C129.831151,21.4848285 126.235064,17.7025066 120.964936,17.7025066 Z M129.831151,37.1411609 L135.163281,37.1411609 C134.233258,42.8766491 128.436117,47 121.305944,47 C111.912716,47 105.991573,40.4584433 105.991573,30.103562 C105.991573,19.7486807 111.943717,12.9591029 121.057938,12.9591029 C129.986155,12.9591029 135.56629,19.2526385 135.56629,29.3594987 L135.56629,31.4676781 L111.571708,31.4676781 L111.571708,31.7777045 C111.571708,38.1332454 115.477803,42.2565963 121.429947,42.2565963 C125.615049,42.2565963 128.870128,40.2724274 129.831151,37.1411609 Z M147.927615,28.2124011 L147.927615,7.54951657e-15 L142.533484,7.54951657e-15 L142.533484,46.6899736 L147.927615,46.6899736 L147.927615,34.0098945 L151.089691,31.0336412 L163.644996,46.6899736 L169.907148,46.6899736 L154.871783,27.7163588 L169.473138,13.2691293 L162.900978,13.2691293 L147.927615,28.2124011 Z M176.324304,46.6899736 L181.718435,46.6899736 L181.718435,13.2691293 L176.324304,13.2691293 L176.324304,46.6899736 Z M179.021369,7.87467018 C180.912415,7.87467018 182.431452,6.32453826 182.431452,4.46437995 C182.431452,2.573219 180.912415,1.05408971 179.021369,1.05408971 C177.161324,1.05408971 175.611287,2.573219 175.611287,4.46437995 C175.611287,6.32453826 177.161324,7.87467018 179.021369,7.87467018 Z M193.095711,5.73548813 L193.095711,13.2691293 L188.445598,13.2691293 L188.445598,17.7335092 L193.095711,17.7335092 L193.095711,38.0092348 C193.095711,44.426781 195.451768,46.9379947 201.496915,46.9379947 C202.767946,46.9379947 204.317983,46.8139842 204.968999,46.658971 L204.968999,42.1015831 C204.59699,42.1635884 203.294959,42.2565963 202.643943,42.2565963 C199.791874,42.2565963 198.489842,40.8614776 198.489842,37.7922164 L198.489842,17.7335092 L205,17.7335092 L205,13.2691293 L198.489842,13.2691293 L198.489842,5.73548813 L193.095711,5.73548813 Z"/></svg>