<svg xmlns="http://www.w3.org/2000/svg" viewBox="0 0 205 47"><path fill="#fff" fill-rule="evenodd" d="M17.453 46.69H0V1.953h17.515c7.658 0 12.835 4.465 12.835 11.161 0 4.65-3.41 8.99-7.72 9.766v.248c6.077.775 9.983 5.053 9.983 11.006 0 7.875-5.642 12.556-15.16 12.556zM5.58 6.883v14.354h8.928c6.604 0 10.2-2.635 10.2-7.472 0-4.433-3.038-6.882-8.464-6.882H5.58zm0 34.878h11.036c6.728 0 10.262-2.729 10.262-7.906 0-5.178-3.658-7.813-10.789-7.813H5.58v15.719zm45.571.558c5.456 0 9.455-3.535 9.455-8.34v-2.697l-8.742.558c-5.022.31-7.626 2.139-7.626 5.363 0 3.1 2.697 5.116 6.913 5.116zM50.004 47c-6.789 0-11.284-3.906-11.284-9.828 0-5.735 4.402-9.115 12.524-9.61l9.362-.559v-2.79c0-4.154-2.728-6.448-7.657-6.448-3.875 0-6.758 1.984-7.409 5.146h-5.177c.155-5.643 5.642-9.952 12.648-9.952 7.905 0 12.99 4.216 12.99 10.789V46.69h-5.116v-5.798h-.124C58.871 44.612 54.685 47 50.004 47zm24.584-24.4c0 4.465 2.852 7.41 8.711 8.93l5.86 1.519c3.812.992 5.207 2.232 5.207 4.588 0 3.007-2.852 4.899-7.409 4.899s-7.316-1.83-7.874-5.24h-5.425C74.185 43.094 79.393 47 86.585 47c7.72 0 13.206-4.03 13.206-9.735 0-4.867-2.418-7.223-9.176-8.929l-5.084-1.27c-3.844-.962-5.642-2.48-5.642-4.744 0-2.914 2.759-4.868 6.882-4.868 4.092 0 6.82 1.954 7.161 5.085h5.177c-.217-5.488-5.363-9.549-12.152-9.549-7.254 0-12.37 3.968-12.37 9.61zm46.377-4.897c-5.24 0-9.021 3.813-9.393 9.455h18.383c-.124-5.673-3.72-9.455-8.99-9.455zm8.866 19.438h5.332c-.93 5.736-6.727 9.859-13.857 9.859-9.393 0-15.314-6.542-15.314-16.896 0-10.355 5.952-17.145 15.066-17.145 8.928 0 14.508 6.294 14.508 16.4v2.109h-23.994v.31c0 6.355 3.906 10.479 9.858 10.479 4.185 0 7.44-1.985 8.401-5.116zm18.097-8.929V0h-5.395v46.69h5.395V34.01l3.162-2.976 12.555 15.656h6.262l-15.035-18.974 14.601-14.447h-6.572l-14.973 14.943zm28.396 18.478h5.394V13.27h-5.394v33.42zm2.697-38.815a3.42 3.42 0 0 0 3.41-3.41 3.4 3.4 0 0 0-3.41-3.41 3.42 3.42 0 0 0-3.41 3.41c0 1.86 1.55 3.41 3.41 3.41zm14.075-2.14v7.534h-4.65v4.465h4.65v20.275c0 6.418 2.356 8.929 8.4 8.929 1.272 0 2.822-.124 3.473-.279v-4.557c-.372.062-1.674.155-2.325.155-2.852 0-4.154-1.396-4.154-4.465V17.734H205v-4.465h-6.51V5.735h-5.394z"/></svg>