<svg width="37" height="12" viewBox="0 0 37 12" xmlns="http://www.w3.org/2000/svg"><title>eq</title><path d="M34.13.2V1c-.494-.6-1.186-1-2.274-1-2.276 0-3.76 2-3.76 4.4 0 2.4 1.583 4.4 3.76 4.4.99 0 1.68-.3 2.176-.8v4H37V.2h-2.87zM32.648 6c-.89 0-1.484-.7-1.484-1.6 0-.9.594-1.6 1.484-1.6s1.484.7 1.484 1.6c0 .9-.69 1.6-1.483 1.6zM23.25 0c-2.574 0-4.354 1.8-4.354 4.5 0 2.6 1.78 4.3 4.452 4.3 1.68 0 2.968-.6 3.76-1.5l-2.08-1.7c-.493.4-.988.7-1.58.7-.793 0-1.288-.3-1.485-1h5.44c0-.2.1-.6.1-.9 0-2.6-1.682-4.4-4.254-4.4zm-1.19 3.5c.2-.7.595-1 1.288-1 .593 0 .99.3 1.286 1H22.06zM0 2.8h18.203v2.4H0V2.8z" fill-rule="evenodd"/></svg>