<svg viewBox="0 0 204 44" xmlns="http://www.w3.org/2000/svg"><path fill="#fff" d="M30.31 28.74c0 8.62-6.08 15.16-14.058 15.16-3.988 0-6.78-1.585-8.674-3.963v3.17H0V.297h7.777v17.046c1.895-2.28 4.587-3.765 8.475-3.765 8.076 0 14.06 6.54 14.06 15.162zm-22.932 0c0 4.557 2.992 7.927 7.478 7.927 4.587 0 7.478-3.568 7.478-7.928 0-4.37-2.89-7.93-7.478-7.93-4.486 0-7.478 3.37-7.478 7.93zM64.51 43.206h-7.577v-3.17C55.038 42.314 52.246 44 48.258 44c-7.976 0-14.06-6.54-14.06-15.162s6.084-15.162 14.06-15.162c3.988 0 6.78 1.585 8.675 3.964v-3.172h7.577v28.74zM42.176 28.74c0 4.36 2.89 7.927 7.478 7.927 4.487 0 7.478-3.37 7.478-7.928 0-4.56-2.99-7.93-7.478-7.93-4.587 0-7.478 3.56-7.478 7.93zm50.452-6.344c-2.294-1.09-5.983-2.28-9.273-2.378-2.99 0-4.487.99-4.487 2.577 0 1.684 2.094 2.08 4.686 2.477l2.593.396c6.28.99 9.77 3.766 9.77 8.622 0 5.946-4.885 9.81-13.26 9.81-3.988 0-9.073-.792-12.862-3.368l3.09-5.847c2.493 1.684 5.485 2.874 9.872 2.874 3.59 0 5.384-1 5.384-2.68 0-1.39-1.49-2.18-4.78-2.68l-2.39-.298c-6.68-.893-9.97-3.866-9.97-8.72 0-5.948 4.586-9.416 12.263-9.416 4.587 0 8.276.892 12.065 2.775l-2.69 5.846zm35.794 6.343c0 .89-.1 1.98-.2 2.57h-20.54c.8 4.16 3.79 5.943 7.48 5.943 2.492 0 5.184-.99 7.278-2.775l4.586 4.955c-3.29 2.975-7.478 4.363-12.363 4.363-8.874 0-15.056-6.046-15.056-15.064 0-9.02 5.982-15.263 14.657-15.263 8.375.1 14.06 6.244 14.158 15.262zm-20.74-2.68h12.863c-.697-3.67-2.99-5.75-6.28-5.75-3.69 0-5.884 2.18-6.582 5.75zm34.1-1.39h2.793l8.176-10.21h9.58l-11.47 13.58 11.47 15.26h-9.572l-8.376-11.69h-2.593v11.694h-7.778V.494h7.776v24.18zm33.104-19.72c0 2.772-2.194 4.952-4.986 4.952-2.79 0-4.985-2.18-4.985-4.956S167.11 0 169.9 0c2.792 0 4.986 2.18 4.986 4.955zM173.79 43.2h-7.78V14.37h7.774v28.837zm27.91-21.9h-10.47v10.51c0 3.568 1.895 4.956 4.388 4.956 1.895 0 3.89-.892 5.485-1.883l2.89 6.045c-2.59 1.685-5.483 3.072-9.57 3.072-7.18 0-10.868-4.063-10.868-11.495v-11.1h-5.783v-6.937h5.584V5.946h7.777v8.522h10.47v6.838h.1z" fill-rule="evenodd"/></svg>