<svg xmlns="http://www.w3.org/2000/svg" viewBox="0 0 52 64">
  <path d="M48 64H4c-2.21 0-4-1.79-4-4V20c0-2.21 1.79-4 4-4h6v4H6c-1.105 0-2 .896-2 1.998v36C4 59.104 4.895 60 6 60h40c1.103 0 2-.894 2-2V21.998c0-1.1-.898-1.997-2-1.997h-4v-4h6c2.21 0 4 1.79 4 4v40c0 2.21-1.79 4-4 4zM27.495 47.266c-.016.018-.012.05-.027.067-.026.027-.015.07-.04.097-.028.026-.07.015-.098.04-.332.3-.76.486-1.234.51-.024.002-.043.015-.067.015-.01 0-.02.005-.03.005-.01 0-.02-.006-.03-.006-.037 0-.065-.023-.1-.024-.4-.028-.74-.194-1.04-.43-.08-.06-.19-.037-.263-.11-.05-.05-.03-.125-.074-.177-.014-.017-.035-.024-.05-.042l-9.876-9.872c-.76-.764-.76-2 0-2.76.765-.767 2-.767 2.764 0l6.67 6.66V2c0-1.103.896-2 2-2s2 .896 2 2v39.24l6.667-6.664c.764-.767 2-.767 2.762 0 .76.76.76 1.996 0 2.76l-9.938 9.93z"/>
</svg>
