<svg xmlns="http://www.w3.org/2000/svg" viewBox="0 0 64 52"><path fill="#FFF" d="M2.124 52c.02 0 .045 0 .068-.002 1.01-.033 1.65-.792 1.735-1.767.068-.715 2.06-18.067 30.08-18.05l.062 11.097c0 .748.442 1.43 1.144 1.75a2.05 2.05 0 0 0 2.124-.255l25.934-20.768c.465-.37.732-.918.73-1.498 0-.58-.27-1.13-.735-1.496L37.33.433a2.057 2.057 0 0 0-2.12-.247 1.93 1.93 0 0 0-1.143 1.746l-.064 10.852c-11.624.356-20.625 3.97-26.46 10.57-9.493 10.74-7.373 26.35-7.273 27 .148.95.866 1.645 1.854 1.645V52z"/></svg>