<svg xmlns="http://www.w3.org/2000/svg" viewBox="0 0 64 52"><path fill="#fff" d="M2.124 52c.02 0 .045 0 .068-.002 1.01-.033 1.65-.792 1.735-1.767.068-.715 2.06-18.067 30.08-18.05l.062 11.097c0 .748.442 1.43 1.144 1.75a2.05 2.05 0 0 0 2.124-.255l25.934-20.768c.465-.37.732-.918.73-1.498 0-.58-.27-1.13-.735-1.496L37.33.433a2.057 2.057 0 0 0-2.12-.247 1.93 1.93 0 0 0-1.143 1.746l-.064 10.852c-11.624.356-20.625 3.97-26.46 10.57-9.493 10.74-7.373 26.35-7.273 27 .148.95.866 1.645 1.854 1.645zM36.07 28.285h-.006c-20.013.012-27.66 6.543-32.03 12.313.64-4.62 2.506-10.194 6.564-14.745 5.396-6.046 14.09-9.233 25.472-9.233 1.104 0 2-.865 2-1.934V6l20.776 16.512L38.07 39.184v-8.968c0-.512-.212-1.007-.59-1.37a2.044 2.044 0 0 0-1.41-.56z"/></svg>